<?xml version="1.0" encoding="utf-8"?>
<!-- Generator: Adobe Illustrator 24.0.3, SVG Export Plug-In . SVG Version: 6.00 Build 0)  -->
<svg version="1.1" id="Layer_1" xmlns="http://www.w3.org/2000/svg" xmlns:xlink="http://www.w3.org/1999/xlink" x="0px" y="0px"
	 viewBox="0 0 153 166" style="enable-background:new 0 0 153 166;" xml:space="preserve">
<style type="text/css">
	.st0{fill:#226EDD;}
	.st1{fill:#E5E5E5;}
	.st2{fill:#2DC434;}
</style>
<path class="st0" d="M7.2,12.6h4.4v1.9H7.2v4.9h-2v-4.9H0.8v-1.9h4.4V8h2V12.6z"/>
<path class="st1" d="M7.2,47.6h4.4v1.9H7.2v4.9h-2v-4.9H0.8v-1.9h4.4V43h2V47.6z"/>
<path class="st1" d="M7.2,82.6h4.4v1.9H7.2v4.9h-2v-4.9H0.8v-1.9h4.4V78h2V82.6z"/>
<path class="st1" d="M42.2,12.6h4.4v1.9h-4.4v4.9h-2v-4.9h-4.4v-1.9h4.4V8h2V12.6z"/>
<path class="st1" d="M42.2,47.6h4.4v1.9h-4.4v4.9h-2v-4.9h-4.4v-1.9h4.4V43h2V47.6z"/>
<path class="st1" d="M42.2,82.6h4.4v1.9h-4.4v4.9h-2v-4.9h-4.4v-1.9h4.4V78h2V82.6z"/>
<path class="st1" d="M42.2,117.6h4.4v1.9h-4.4v4.9h-2v-4.9h-4.4v-1.9h4.4V113h2V117.6z"/>
<path class="st1" d="M77.2,12.6h4.4v1.9h-4.4v4.9h-2v-4.9h-4.4v-1.9h4.4V8h2V12.6z"/>
<path class="st1" d="M77.2,47.6h4.4v1.9h-4.4v4.9h-2v-4.9h-4.4v-1.9h4.4V43h2V47.6z"/>
<path class="st2" d="M77.2,82.6h4.4v1.9h-4.4v4.9h-2v-4.9h-4.4v-1.9h4.4V78h2V82.6z"/>
<path class="st1" d="M77.2,117.6h4.4v1.9h-4.4v4.9h-2v-4.9h-4.4v-1.9h4.4V113h2V117.6z"/>
<path class="st1" d="M77.2,152.6h4.4v1.9h-4.4v4.9h-2v-4.9h-4.4v-1.9h4.4V148h2V152.6z"/>
<path class="st1" d="M112.2,12.6h4.4v1.9h-4.4v4.9h-2v-4.9h-4.4v-1.9h4.4V8h2V12.6z"/>
<path class="st1" d="M112.2,47.6h4.4v1.9h-4.4v4.9h-2v-4.9h-4.4v-1.9h4.4V43h2V47.6z"/>
<path class="st1" d="M112.2,82.6h4.4v1.9h-4.4v4.9h-2v-4.9h-4.4v-1.9h4.4V78h2V82.6z"/>
<path class="st1" d="M112.2,117.6h4.4v1.9h-4.4v4.9h-2v-4.9h-4.4v-1.9h4.4V113h2V117.6z"/>
<path class="st1" d="M112.2,152.6h4.4v1.9h-4.4v4.9h-2v-4.9h-4.4v-1.9h4.4V148h2V152.6z"/>
<path class="st1" d="M147.2,12.6h4.4v1.9h-4.4v4.9h-2v-4.9h-4.4v-1.9h4.4V8h2V12.6z"/>
<path class="st1" d="M147.2,47.6h4.4v1.9h-4.4v4.9h-2v-4.9h-4.4v-1.9h4.4V43h2V47.6z"/>
<path class="st1" d="M147.2,82.6h4.4v1.9h-4.4v4.9h-2v-4.9h-4.4v-1.9h4.4V78h2V82.6z"/>
<path class="st1" d="M147.2,117.6h4.4v1.9h-4.4v4.9h-2v-4.9h-4.4v-1.9h4.4V113h2V117.6z"/>
<path class="st1" d="M147.2,152.6h4.4v1.9h-4.4v4.9h-2v-4.9h-4.4v-1.9h4.4V148h2V152.6z"/>
</svg>
